<svg xmlns="http://www.w3.org/2000/svg" version="1.1" xmlns:xlink="http://www.w3.org/1999/xlink" xmlns:svgjs="http://svgjs.dev/svgjs" width="1920" height="1050" preserveAspectRatio="none" viewBox="0 0 1920 1050"><g mask="url(&quot;#SvgjsMask1032&quot;)" fill="none"><path d="M0 0L773.71 0L0 429.38z" fill="rgba(255, 255, 255, .1)"></path><path d="M0 429.38L773.71 0L890.1400000000001 0L0 604.44z" fill="rgba(255, 255, 255, .075)"></path><path d="M0 604.44L890.1400000000001 0L1014.45 0L0 857.6300000000001z" fill="rgba(255, 255, 255, .05)"></path><path d="M0 857.6300000000001L1014.45 0L1152.65 0L0 977.1200000000001z" fill="rgba(255, 255, 255, .025)"></path><path d="M1920 1050L1453.1 1050L1920 616.74z" fill="rgba(0, 0, 0, .1)"></path><path d="M1920 616.74L1453.1 1050L908.2799999999999 1050L1920 522.16z" fill="rgba(0, 0, 0, .075)"></path><path d="M1920 522.16L908.28 1050L485.4 1050L1920 198.98999999999995z" fill="rgba(0, 0, 0, .05)"></path><path d="M1920 198.99L485.4000000000001 1050L420.55000000000007 1050L1920 74.84z" fill="rgba(0, 0, 0, .025)"></path></g><defs><mask id="SvgjsMask1032"><rect width="1920" height="1050" fill="#ffffff"></rect></mask></defs></svg>